HIERARCHY
ROOT Hips
{
    OFFSET 0.000000 0.000000 0.000000
    CHANNELS 6 Xposition Yposition Zposition Zrotation Xrotation Yrotation
    JOINT Spine
    {
        OFFSET -0.000000 7.246840 0.000000
        CHANNELS 3 Zrotation Xrotation Yrotation
        JOINT Spine1
        {
            OFFSET -0.000000 20.289354 0.000000
            CHANNELS 3 Zrotation Xrotation Yrotation
            JOINT Neck
            {
                OFFSET -0.000000 20.206032 1.836912
                CHANNELS 3 Zrotation Xrotation Yrotation
                JOINT Head
                {
                    OFFSET -0.000000 12.372654 -1.767522
                    CHANNELS 3 Zrotation Xrotation Yrotation
                    End Site
                    {
                        OFFSET -0.000000 22.094025 0.000000
                    }
                }
            }
            JOINT LeftShoulder
            {
                OFFSET 3.465871 17.201674 -0.568930
                CHANNELS 3 Zrotation Xrotation Yrotation
                JOINT LeftArm
                {
                    OFFSET 14.070313 0.000000 0.000000
                    CHANNELS 3 Zrotation Xrotation Yrotation
                    JOINT LeftForeArm
                    {
                        OFFSET 26.549477 0.000000 0.000000
                        CHANNELS 3 Zrotation Xrotation Yrotation
                        JOINT LeftHand
                        {
                            OFFSET 18.880413 0.000000 0.000000
                            CHANNELS 3 Zrotation Xrotation Yrotation
                            End Site
                            {
                                OFFSET 13.256415 0.000000 0.000000
                            }
                        }
                    }
                }
            }
            JOINT RightShoulder
            {
                OFFSET -3.526370 17.201674 -0.568930
                CHANNELS 3 Zrotation Xrotation Yrotation
                JOINT RightArm
                {
                    OFFSET -14.070313 0.000000 0.000000
                    CHANNELS 3 Zrotation Xrotation Yrotation
                    JOINT RightForeArm
                    {
                        OFFSET -26.549477 0.000000 0.000000
                        CHANNELS 3 Zrotation Xrotation Yrotation
                        JOINT RightHand
                        {
                            OFFSET -18.880413 0.000000 0.000000
                            CHANNELS 3 Zrotation Xrotation Yrotation
                            End Site
                            {
                                OFFSET -13.256415 0.000000 0.000000
                            }
                        }
                    }
                }
            }
        }
    }
    JOINT LeftUpLeg
    {
        OFFSET 8.837609 0.000000 0.000000
        CHANNELS 3 Zrotation Xrotation Yrotation
        JOINT LeftLeg
        {
            OFFSET -0.000000 -41.345005 0.000000
            CHANNELS 3 Zrotation Xrotation Yrotation
            JOINT LeftFoot
            {
                OFFSET -0.000000 -35.500874 0.000000
                CHANNELS 3 Zrotation Xrotation Yrotation
                JOINT LeftToeBase
                {
                    OFFSET -0.000000 -5.744446 13.256415
                    CHANNELS 3 Zrotation Xrotation Yrotation
                    End Site
                    {
                        OFFSET -0.000000 0.000000 3.535044
                    }
                }
            }
        }
    }
    JOINT RightUpLeg
    {
        OFFSET -8.837609 0.000000 0.000000
        CHANNELS 3 Zrotation Xrotation Yrotation
        JOINT RightLeg
        {
            OFFSET -0.000000 -41.345005 0.000000
            CHANNELS 3 Zrotation Xrotation Yrotation
            JOINT RightFoot
            {
                OFFSET -0.000000 -35.500874 0.000000
                CHANNELS 3 Zrotation Xrotation Yrotation
                JOINT RightToeBase
                {
                    OFFSET -0.000000 -5.744446 13.256415
                    CHANNELS 3 Zrotation Xrotation Yrotation
                    End Site
                    {
                        OFFSET -0.000000 0.000000 3.535044
                    }
                }
            }
        }
    }
}
MOTION
Frames:    5
Frame Time:    0.010000
2.887105    82.279152    -12.196898    2.410630    2.803086    -2.464290    -4.188962    -14.107719    -0.722717    1.288185    1.998455    -0.226693    -0.197953    31.130571    -1.679473    3.316257    -11.530577    -0.979061    17.668701    0.257840    6.798458    -29.364288    8.386012    -16.906378    2.415108    -1.968524    -3.551972    -8.157195    -1.149714    -10.408650    -15.769931    -2.578911    14.478353    20.941650    6.155934    11.013465    -3.741344    -3.128540    -1.009381    12.552505    -1.464367    15.350317    -2.045151    9.186717    1.153702    -2.121611    -10.906526    -7.604989    5.231305    1.115545    -2.680686    -0.329914    -1.083215    0.464890    -6.690814    4.303173    -1.324272    7.165847    -6.515444    2.634101    -0.892922    -2.813999    -9.621533    0.690201    -1.806059    -1.262523    
2.893256    82.278847    -12.193386    2.405536    2.807039    -2.469341    -4.191793    -14.115729    -0.723126    1.291393    2.002277    -0.226396    -0.185881    31.108599    -1.675477    3.308522    -11.517973    -0.975315    17.672659    0.234550    6.797497    -29.355200    8.414444    -16.894176    2.424740    -2.005700    -3.554795    -8.134531    -1.187709    -10.421497    -15.770168    -2.572535    14.463442    20.945673    6.126255    11.027636    -3.751566    -3.167391    -1.003754    12.509964    -1.510669    15.335137    -2.053046    9.183681    1.171316    -2.103511    -10.898941    -7.590041    5.204834    1.103703    -2.716304    -0.342508    -1.103348    0.482695    -6.694260    4.306342    -1.323079    7.175231    -6.528253    2.636646    -0.901987    -2.799890    -9.626653    0.687087    -1.806877    -1.256839    
2.898584    82.278442    -12.189050    2.398943    2.809738    -2.470910    -4.206313    -14.121892    -0.729429    1.319612    1.999118    -0.231128    -0.199497    31.104408    -1.668841    3.314560    -11.517389    -0.968932    17.667940    0.232389    6.796313    -29.375502    8.353758    -16.885027    2.415328    -2.024664    -3.554918    -8.081069    -1.208848    -10.463774    -15.785204    -2.567010    14.460753    20.947245    6.117331    11.025994    -3.764027    -3.206385    -0.975535    12.503489    -1.551730    15.317586    -2.042593    9.191025    1.150042    -2.134685    -10.908215    -7.527538    5.285120    1.098655    -2.764873    -0.329638    -1.075973    0.464480    -6.689936    4.313300    -1.315904    7.165750    -6.545265    2.609439    -0.895161    -2.790929    -9.603398    0.692309    -1.800142    -1.266296    
2.908218    82.278374    -12.185147    2.403887    2.812056    -2.463324    -3.996427    -14.171631    -0.671688    0.858773    2.066151    -0.190358    0.150436    31.115011    -1.729113    3.251207    -11.553365    -0.994521    17.902290    0.205867    6.721036    -29.375542    8.299732    -16.865372    2.406791    -2.055593    -3.533102    -7.989343    -1.244745    -10.523129    -15.411102    -2.543195    14.407143    20.823330    6.059049    11.055263    -3.789268    -3.169958    -1.008797    12.564015    -1.509959    15.303192    -2.057646    9.188126    1.151356    -2.126001    -10.900853    -7.536075    5.298536    1.078683    -2.764043    -0.331134    -1.060377    0.466544    -6.702693    4.322215    -1.339158    7.173270    -6.557652    2.625551    -0.894587    -2.788769    -9.604539    0.688994    -1.807367    -1.260335    
2.915284    82.277153    -12.181785    2.399729    2.818707    -2.461151    -4.006161    -14.186152    -0.672855    0.876291    2.069000    -0.190032    0.149325    31.115814    -1.721488    3.259701    -11.560196    -0.984552    17.899256    0.207678    6.715592    -29.398199    8.235298    -16.872538    2.397823    -2.043825    -3.516615    -7.905952    -1.238241    -10.567386    -15.422404    -2.545093    14.401093    20.816929    6.063332    11.042839    -3.798429    -3.153924    -0.980383    12.627425    -1.487932    15.271977    -2.054558    9.183706    1.157520    -2.140106    -10.899779    -7.528380    5.301552    1.080421    -2.770920    -0.319611    -1.066831    0.450326    -6.704411    4.328451    -1.336813    7.177480    -6.578249    2.610497    -0.887882    -2.785722    -9.601193    0.683392    -1.801801    -1.250009    
